<svg width="25" height="24" viewBox="0 0 25 24" fill="none" xmlns="http://www.w3.org/2000/svg">
<g clip-path="url(#clip0_153_11486)">
<path d="M23.621 9.06887L16.036 1.48287C15.0973 0.546856 13.8257 0.0212402 12.5 0.0212402C11.1744 0.0212402 9.90277 0.546856 8.96401 1.48287L1.37901 9.06887C1.09944 9.34665 0.877782 9.67717 0.726895 10.0413C0.576007 10.4053 0.49889 10.7958 0.500012 11.1899V21.0069C0.500012 21.8025 0.816083 22.5656 1.37869 23.1282C1.9413 23.6908 2.70436 24.0069 3.50001 24.0069H21.5C22.2957 24.0069 23.0587 23.6908 23.6213 23.1282C24.1839 22.5656 24.5 21.8025 24.5 21.0069V11.1899C24.5011 10.7958 24.424 10.4053 24.2731 10.0413C24.1222 9.67717 23.9006 9.34665 23.621 9.06887ZM15.5 22.0069H9.50001V18.0729C9.50001 17.2772 9.81608 16.5142 10.3787 15.9515C10.9413 15.3889 11.7044 15.0729 12.5 15.0729C13.2957 15.0729 14.0587 15.3889 14.6213 15.9515C15.1839 16.5142 15.5 17.2772 15.5 18.0729V22.0069ZM22.5 21.0069C22.5 21.2721 22.3947 21.5264 22.2071 21.714C22.0196 21.9015 21.7652 22.0069 21.5 22.0069H17.5V18.0729C17.5 16.7468 16.9732 15.475 16.0355 14.5373C15.0979 13.5997 13.8261 13.0729 12.5 13.0729C11.1739 13.0729 9.90216 13.5997 8.96448 14.5373C8.0268 15.475 7.50001 16.7468 7.50001 18.0729V22.0069H3.50001C3.2348 22.0069 2.98044 21.9015 2.79291 21.714C2.60537 21.5264 2.50001 21.2721 2.50001 21.0069V11.1899C2.50094 10.9248 2.6062 10.6709 2.79301 10.4829L10.378 2.89987C10.9417 2.3388 11.7047 2.02381 12.5 2.02381C13.2953 2.02381 14.0583 2.3388 14.622 2.89987L22.207 10.4859C22.3931 10.6731 22.4983 10.9259 22.5 11.1899V21.0069Z" fill="#E2DCFE"/>
</g>
<defs>
<clipPath id="clip0_153_11486">
<rect width="24" height="24" fill="white" transform="translate(0.5)"/>
</clipPath>
</defs>
</svg>
