<svg width="34" height="34" viewBox="0 0 34 34" fill="none" xmlns="http://www.w3.org/2000/svg">
<rect width="34" height="34" rx="17" fill="#0AB151" fill-opacity="0.12"/>
<path d="M17 10.3334C13.6913 10.3334 11 13.0247 11 16.3334C11 18.552 12.2133 20.488 14.0087 21.5267L12.6307 22.4454C12.5117 22.5247 12.4213 22.6402 12.373 22.7749C12.3247 22.9095 12.321 23.0561 12.3624 23.193C12.4038 23.3299 12.4881 23.4499 12.6029 23.5352C12.7178 23.6205 12.857 23.6666 13 23.6667H21C21.1431 23.6667 21.2824 23.6207 21.3973 23.5355C21.5122 23.4502 21.5967 23.3303 21.6382 23.1933C21.6797 23.0564 21.676 22.9097 21.6277 22.775C21.5794 22.6403 21.4891 22.5248 21.37 22.4454L19.992 21.5267C21.7867 20.488 23 18.552 23 16.3334C23 13.0247 20.3087 10.3334 17 10.3334ZM17 21C14.4273 21 12.3333 18.906 12.3333 16.3334C12.3333 13.7607 14.4273 11.6667 17 11.6667C19.5727 11.6667 21.6667 13.7607 21.6667 16.3334C21.6667 18.906 19.5727 21 17 21Z" fill="#639223"/>
<path d="M17.0003 13C15.1623 13 13.667 14.4953 13.667 16.3333C13.667 18.1713 15.1623 19.6667 17.0003 19.6667C18.8383 19.6667 20.3337 18.1713 20.3337 16.3333C20.3337 14.4953 18.8383 13 17.0003 13ZM16.0003 16.3333C15.869 16.3333 15.7389 16.3074 15.6175 16.2571C15.4962 16.2067 15.3859 16.133 15.2931 16.0401C15.1055 15.8524 15.0002 15.598 15.0003 15.3327C15.0004 15.2013 15.0263 15.0712 15.0766 14.9499C15.1269 14.8285 15.2006 14.7183 15.2936 14.6254C15.4812 14.4379 15.7357 14.3326 16.001 14.3327C16.2663 14.3328 16.5207 14.4382 16.7082 14.6259C16.8958 14.8136 17.0011 15.068 17.001 15.3333C17.0009 15.5986 16.8954 15.853 16.7078 16.0406C16.5201 16.2281 16.2656 16.3334 16.0003 16.3333Z" fill="#639223"/>
</svg>
