<svg width="16" height="17" viewBox="0 0 16 17" fill="none" xmlns="http://www.w3.org/2000/svg">
<path d="M15.8049 0.279542C15.6799 0.154561 15.5103 0.0843506 15.3336 0.0843506C15.1568 0.0843506 14.9872 0.154561 14.8622 0.279542L8.00022 7.14154L1.13822 0.279542C1.01321 0.154561 0.843667 0.0843506 0.666891 0.0843506C0.490114 0.0843506 0.320576 0.154561 0.195557 0.279542V0.279542C0.0705765 0.40456 0.000366211 0.574099 0.000366211 0.750875C0.000366211 0.927651 0.0705765 1.09719 0.195557 1.22221L7.05756 8.08421L0.195557 14.9462C0.0705765 15.0712 0.000366211 15.2408 0.000366211 15.4175C0.000366211 15.5943 0.0705765 15.7639 0.195557 15.8889V15.8889C0.320576 16.0139 0.490114 16.0841 0.666891 16.0841C0.843667 16.0841 1.01321 16.0139 1.13822 15.8889L8.00022 9.02687L14.8622 15.8889C14.9872 16.0139 15.1568 16.0841 15.3336 16.0841C15.5103 16.0841 15.6799 16.0139 15.8049 15.8889C15.9299 15.7639 16.0001 15.5943 16.0001 15.4175C16.0001 15.2408 15.9299 15.0712 15.8049 14.9462L8.94289 8.08421L15.8049 1.22221C15.9299 1.09719 16.0001 0.927651 16.0001 0.750875C16.0001 0.574099 15.9299 0.40456 15.8049 0.279542V0.279542Z" fill="#1B1F24"/>
</svg>
