<svg width="18" height="18" viewBox="0 0 18 18" fill="none" xmlns="http://www.w3.org/2000/svg">
<g clip-path="url(#clip0_587_5393)">
<path d="M13.5127 13.4054C13.5127 13.4054 13.5726 13.3597 13.6682 13.2814C15.1017 12.0952 16 10.3764 16 8.46269C16 4.89506 12.8656 2 9.00156 2C5.136 2 2 4.89506 2 8.46269C2 12.032 5.13444 14.8272 9 14.8272C9.32978 14.8272 9.87111 14.8039 10.624 14.7572C11.6056 15.4398 13.0382 16 14.292 16C14.6801 16 14.8629 15.6587 14.614 15.3108C14.236 14.8147 13.7149 14.0206 13.5127 13.4054Z" stroke="#747A82" stroke-width="1.4" stroke-linecap="round" stroke-linejoin="round"/>
<path d="M5.625 9C7.5 12 10.5 12 12.375 9" stroke="#747A82" stroke-width="1.4" stroke-linejoin="round"/>
</g>
<defs>
<clipPath id="clip0_587_5393">
<rect width="18" height="18" fill="white"/>
</clipPath>
</defs>
</svg>
