<svg width="18" height="18" viewBox="0 0 18 18" fill="none" xmlns="http://www.w3.org/2000/svg">
<g clip-path="url(#clip0_679_349)">
<path d="M12.2547 6.99196C12.5577 6.70954 12.5744 6.23496 12.2919 5.93195C12.0096 5.62894 11.535 5.61224 11.232 5.89465L9.03739 7.94007L6.99196 5.74548C6.70954 5.44247 6.23496 5.42578 5.93195 5.70819C5.62894 5.9906 5.61224 6.46518 5.89465 6.7682L7.94007 8.96277L5.74548 11.0082C5.44247 11.2906 5.42578 11.7652 5.70819 12.0682C5.9906 12.3712 6.46518 12.3879 6.7682 12.1055L8.96277 10.0601L11.0082 12.2547C11.2906 12.5577 11.7652 12.5744 12.0682 12.2919C12.3712 12.0096 12.3879 11.535 12.1055 11.232L10.0601 9.03739L12.2547 6.99196Z" fill="#B1B4BA"/>
<path fill-rule="evenodd" clip-rule="evenodd" d="M0.75 9C0.75 4.44365 4.44365 0.75 9 0.75C13.5563 0.75 17.25 4.44365 17.25 9C17.25 13.5563 13.5563 17.25 9 17.25C4.44365 17.25 0.75 13.5563 0.75 9ZM9 15.75C5.27208 15.75 2.25 12.728 2.25 9C2.25 5.27208 5.27208 2.25 9 2.25C12.728 2.25 15.75 5.27208 15.75 9C15.75 12.728 12.728 15.75 9 15.75Z" fill="#B1B4BA"/>
</g>
<defs>
<clipPath id="clip0_679_349">
<rect width="18" height="18" fill="white"/>
</clipPath>
</defs>
</svg>
