<svg width="24" height="24" viewBox="0 0 24 24" fill="none" xmlns="http://www.w3.org/2000/svg">
<g clip-path="url(#clip0_262_2739)">
<path d="M0 22.9996V15.9996C0.00264685 13.6135 0.951708 11.3258 2.63896 9.63859C4.32622 7.95134 6.61386 7.00228 9 6.99963H13.83V5.41363C13.8301 5.01813 13.9474 4.63154 14.1672 4.30272C14.387 3.9739 14.6993 3.71762 15.0647 3.56628C15.4301 3.41494 15.8322 3.37533 16.2201 3.45247C16.608 3.5296 16.9643 3.72002 17.244 3.99964L23.124 9.87863C23.6864 10.4412 24.0024 11.2041 24.0024 11.9996C24.0024 12.7951 23.6864 13.558 23.124 14.1206L17.244 19.9996C16.9643 20.2792 16.608 20.4696 16.2201 20.5468C15.8322 20.6239 15.4301 20.5843 15.0647 20.433C14.6993 20.2816 14.387 20.0253 14.1672 19.6965C13.9474 19.3677 13.8301 18.9811 13.83 18.5856V16.9996H8C6.40919 17.0012 4.88399 17.6339 3.75911 18.7587C2.63424 19.8836 2.00159 21.4088 2 22.9996C2 23.2648 1.89464 23.5192 1.70711 23.7067C1.51957 23.8943 1.26522 23.9996 1 23.9996C0.734784 23.9996 0.48043 23.8943 0.292893 23.7067C0.105357 23.5192 0 23.2648 0 22.9996ZM15.83 7.99963C15.83 8.26485 15.7246 8.5192 15.5371 8.70674C15.3496 8.89427 15.0952 8.99963 14.83 8.99963H9C7.14414 9.00175 5.36489 9.73992 4.05259 11.0522C2.7403 12.3645 2.00212 14.1438 2 15.9996V17.7136C2.74957 16.8606 3.67249 16.1772 4.70715 15.7092C5.74182 15.2412 6.86441 14.9993 8 14.9996H14.83C15.0952 14.9996 15.3496 15.105 15.5371 15.2925C15.7246 15.4801 15.83 15.7344 15.83 15.9996V18.5856L21.709 12.7066C21.8965 12.5191 22.0018 12.2648 22.0018 11.9996C22.0018 11.7345 21.8965 11.4802 21.709 11.2926L15.83 5.41363V7.99963Z" fill="#1B1F24"/>
</g>
<defs>
<clipPath id="clip0_262_2739">
<rect width="24" height="24" fill="white"/>
</clipPath>
</defs>
</svg>
