<svg width="25" height="24" viewBox="0 0 25 24" fill="none" xmlns="http://www.w3.org/2000/svg">
<g clip-path="url(#clip0_153_11495)">
<path d="M9.5 11.9999C10.6867 11.9999 11.8467 11.648 12.8334 10.9887C13.8201 10.3294 14.5892 9.39234 15.0433 8.29598C15.4974 7.19963 15.6162 5.99323 15.3847 4.82934C15.1532 3.66545 14.5818 2.59635 13.7426 1.75724C12.9035 0.918125 11.8344 0.34668 10.6705 0.115169C9.50666 -0.116342 8.30026 0.00247765 7.2039 0.456603C6.10754 0.910729 5.17047 1.67976 4.51118 2.66646C3.85189 3.65315 3.5 4.81319 3.5 5.99988C3.50159 7.59069 4.13424 9.11589 5.25911 10.2408C6.38399 11.3656 7.90919 11.9983 9.5 11.9999ZM9.5 1.99988C10.2911 1.99988 11.0645 2.23448 11.7223 2.674C12.3801 3.11353 12.8928 3.73824 13.1955 4.46915C13.4983 5.20005 13.5775 6.00432 13.4231 6.78024C13.2688 7.55617 12.8878 8.2689 12.3284 8.82831C11.769 9.38772 11.0563 9.76868 10.2804 9.92302C9.50444 10.0774 8.70017 9.99815 7.96927 9.6954C7.23836 9.39265 6.61365 8.87996 6.17412 8.22216C5.7346 7.56436 5.5 6.79101 5.5 5.99988C5.5 4.93901 5.92143 3.9216 6.67157 3.17145C7.42172 2.42131 8.43913 1.99988 9.5 1.99988Z" fill="#1B1F24"/>
<path d="M9.5 13.9996C7.11395 14.0025 4.82645 14.9517 3.13925 16.6389C1.45206 18.3261 0.502911 20.6136 0.5 22.9996C0.5 23.2648 0.605357 23.5192 0.792893 23.7067C0.98043 23.8942 1.23478 23.9996 1.5 23.9996C1.76522 23.9996 2.01957 23.8942 2.20711 23.7067C2.39464 23.5192 2.5 23.2648 2.5 22.9996C2.5 21.1431 3.2375 19.3626 4.55025 18.0499C5.86301 16.7371 7.64348 15.9996 9.5 15.9996C11.3565 15.9996 13.137 16.7371 14.4497 18.0499C15.7625 19.3626 16.5 21.1431 16.5 22.9996C16.5 23.2648 16.6054 23.5192 16.7929 23.7067C16.9804 23.8942 17.2348 23.9996 17.5 23.9996C17.7652 23.9996 18.0196 23.8942 18.2071 23.7067C18.3946 23.5192 18.5 23.2648 18.5 22.9996C18.4971 20.6136 17.5479 18.3261 15.8607 16.6389C14.1735 14.9517 11.8861 14.0025 9.5 13.9996Z" fill="#1B1F24"/>
<path d="M22.4997 7.875C21.9432 7.90272 21.4203 8.14977 21.0455 8.56207C20.6707 8.97437 20.4744 9.51836 20.4997 10.075C20.525 9.51836 20.3288 8.97437 19.9539 8.56207C19.5791 8.14977 19.0562 7.90272 18.4997 7.875C17.9432 7.90272 17.4203 8.14977 17.0455 8.56207C16.6707 8.97437 16.4744 9.51836 16.4997 10.075C16.4997 11.805 18.7557 13.832 19.8797 14.734C20.0557 14.8749 20.2743 14.9516 20.4997 14.9516C20.7251 14.9516 20.9438 14.8749 21.1197 14.734C22.2437 13.834 24.4997 11.805 24.4997 10.075C24.525 9.51836 24.3287 8.97437 23.9539 8.56207C23.5791 8.14977 23.0562 7.90272 22.4997 7.875Z" fill="#1B1F24"/>
</g>
<defs>
<clipPath id="clip0_153_11495">
<rect width="24" height="24" fill="white" transform="translate(0.5)"/>
</clipPath>
</defs>
</svg>
