<svg width="25" height="24" viewBox="0 0 25 24" fill="none" xmlns="http://www.w3.org/2000/svg">
<g clip-path="url(#clip0_153_11555)">
<path d="M9.5 12C10.6867 12 11.8467 11.6481 12.8334 10.9888C13.8201 10.3295 14.5892 9.39246 15.0433 8.2961C15.4974 7.19975 15.6162 5.99335 15.3847 4.82946C15.1532 3.66558 14.5818 2.59648 13.7426 1.75736C12.9035 0.918247 11.8344 0.346802 10.6705 0.115291C9.50666 -0.11622 8.30026 0.00259972 7.2039 0.456726C6.10754 0.910851 5.17047 1.67989 4.51118 2.66658C3.85189 3.65328 3.5 4.81331 3.5 6C3.50159 7.59081 4.13424 9.11602 5.25911 10.2409C6.38399 11.3658 7.90919 11.9984 9.5 12ZM9.5 2C10.2911 2 11.0645 2.2346 11.7223 2.67412C12.3801 3.11365 12.8928 3.73836 13.1955 4.46927C13.4983 5.20017 13.5775 6.00444 13.4231 6.78036C13.2688 7.55629 12.8878 8.26902 12.3284 8.82843C11.769 9.38784 11.0563 9.7688 10.2804 9.92314C9.50444 10.0775 8.70017 9.99827 7.96927 9.69552C7.23836 9.39277 6.61365 8.88008 6.17412 8.22228C5.7346 7.56449 5.5 6.79113 5.5 6C5.5 4.93914 5.92143 3.92172 6.67157 3.17158C7.42172 2.42143 8.43913 2 9.5 2Z" fill="#E2DCFE"/>
<path d="M9.5 13.9998C7.11395 14.0027 4.82645 14.9518 3.13925 16.639C1.45206 18.3262 0.502911 20.6137 0.5 22.9997C0.5 23.2649 0.605357 23.5193 0.792893 23.7068C0.98043 23.8944 1.23478 23.9997 1.5 23.9997C1.76522 23.9997 2.01957 23.8944 2.20711 23.7068C2.39464 23.5193 2.5 23.2649 2.5 22.9997C2.5 21.1432 3.2375 19.3627 4.55025 18.05C5.86301 16.7372 7.64348 15.9998 9.5 15.9998C11.3565 15.9998 13.137 16.7372 14.4497 18.05C15.7625 19.3627 16.5 21.1432 16.5 22.9997C16.5 23.2649 16.6054 23.5193 16.7929 23.7068C16.9804 23.8944 17.2348 23.9997 17.5 23.9997C17.7652 23.9997 18.0196 23.8944 18.2071 23.7068C18.3946 23.5193 18.5 23.2649 18.5 22.9997C18.4971 20.6137 17.5479 18.3262 15.8607 16.639C14.1735 14.9518 11.8861 14.0027 9.5 13.9998Z" fill="#E2DCFE"/>
<path d="M22.4997 7.875C21.9432 7.90272 21.4203 8.14977 21.0455 8.56207C20.6707 8.97437 20.4744 9.51836 20.4997 10.075C20.525 9.51836 20.3288 8.97437 19.9539 8.56207C19.5791 8.14977 19.0562 7.90272 18.4997 7.875C17.9432 7.90272 17.4203 8.14977 17.0455 8.56207C16.6707 8.97437 16.4744 9.51836 16.4997 10.075C16.4997 11.805 18.7557 13.832 19.8797 14.734C20.0557 14.8749 20.2743 14.9516 20.4997 14.9516C20.7251 14.9516 20.9438 14.8749 21.1197 14.734C22.2437 13.834 24.4997 11.805 24.4997 10.075C24.525 9.51836 24.3287 8.97437 23.9539 8.56207C23.5791 8.14977 23.0562 7.90272 22.4997 7.875Z" fill="#E2DCFE"/>
</g>
<defs>
<clipPath id="clip0_153_11555">
<rect width="24" height="24" fill="white" transform="translate(0.5)"/>
</clipPath>
</defs>
</svg>
