<svg width="25" height="24" viewBox="0 0 25 24" fill="none" xmlns="http://www.w3.org/2000/svg">
<g clip-path="url(#clip0_153_11530)">
<path d="M20.035 3.12202L18.379 1.46402C17.9157 0.998333 17.3646 0.629159 16.7576 0.377864C16.1507 0.126569 15.4999 -0.00185599 14.843 2.02654e-05H8.5C7.17441 0.00160812 5.90356 0.528902 4.96622 1.46624C4.02888 2.40358 3.50159 3.67443 3.5 5.00002V19C3.50159 20.3256 4.02888 21.5965 4.96622 22.5338C5.90356 23.4711 7.17441 23.9984 8.5 24H16.5C17.8256 23.9984 19.0964 23.4711 20.0338 22.5338C20.9711 21.5965 21.4984 20.3256 21.5 19V6.65702C21.5016 6.0002 21.373 5.34959 21.1215 4.74281C20.87 4.13604 20.5007 3.58515 20.035 3.12202ZM18.621 4.53602C18.7628 4.67734 18.8898 4.83282 19 5.00002H16.5V2.50002C16.6669 2.61134 16.8227 2.7386 16.965 2.88002L18.621 4.53602ZM19.5 19C19.5 19.7957 19.1839 20.5587 18.6213 21.1213C18.0587 21.684 17.2956 22 16.5 22H8.5C7.70435 22 6.94129 21.684 6.37868 21.1213C5.81607 20.5587 5.5 19.7957 5.5 19V5.00002C5.5 4.20437 5.81607 3.44131 6.37868 2.8787C6.94129 2.31609 7.70435 2.00002 8.5 2.00002H14.5V5.00002C14.5 5.53045 14.7107 6.03916 15.0858 6.41423C15.4609 6.78931 15.9696 7.00002 16.5 7.00002H19.5V19ZM16.5 9.00002C16.7652 9.00002 17.0196 9.10538 17.2071 9.29291C17.3946 9.48045 17.5 9.73481 17.5 10C17.5 10.2652 17.3946 10.5196 17.2071 10.7071C17.0196 10.8947 16.7652 11 16.5 11H8.5C8.23478 11 7.98043 10.8947 7.79289 10.7071C7.60536 10.5196 7.5 10.2652 7.5 10C7.5 9.73481 7.60536 9.48045 7.79289 9.29291C7.98043 9.10538 8.23478 9.00002 8.5 9.00002H16.5ZM17.5 14C17.5 14.2652 17.3946 14.5196 17.2071 14.7071C17.0196 14.8947 16.7652 15 16.5 15H8.5C8.23478 15 7.98043 14.8947 7.79289 14.7071C7.60536 14.5196 7.5 14.2652 7.5 14C7.5 13.7348 7.60536 13.4805 7.79289 13.2929C7.98043 13.1054 8.23478 13 8.5 13H16.5C16.7652 13 17.0196 13.1054 17.2071 13.2929C17.3946 13.4805 17.5 13.7348 17.5 14ZM17.308 17.413C17.4634 17.6269 17.5279 17.8936 17.4872 18.1548C17.4466 18.416 17.3041 18.6505 17.091 18.807C16.0778 19.529 14.8778 19.9432 13.635 20C12.9089 19.9965 12.2048 19.7501 11.635 19.3C11.307 19.075 11.182 19 10.935 19C10.2664 19.1035 9.63562 19.3769 9.103 19.794C8.89175 19.9446 8.63024 20.0072 8.37369 19.9686C8.11715 19.93 7.88565 19.7932 7.72808 19.5871C7.57052 19.381 7.49922 19.1217 7.52925 18.864C7.55927 18.6063 7.68827 18.3704 7.889 18.206C8.77018 17.522 9.82828 17.1036 10.939 17C11.6051 17.0107 12.2491 17.2409 12.771 17.655C13.0089 17.869 13.3152 17.9913 13.635 18C14.4527 17.9388 15.239 17.6594 15.912 17.191C16.1266 17.0355 16.3942 16.9715 16.6559 17.0131C16.9177 17.0547 17.1522 17.1986 17.308 17.413Z" fill="#1B1F24"/>
</g>
<defs>
<clipPath id="clip0_153_11530">
<rect width="24" height="24" fill="white" transform="translate(0.5)"/>
</clipPath>
</defs>
</svg>
