<svg width="25" height="24" viewBox="0 0 25 24" fill="none" xmlns="http://www.w3.org/2000/svg">
<g clip-path="url(#clip0_153_11511)">
<path d="M19.7015 3.12202L18.0455 1.46402C17.5822 0.998333 17.0311 0.629159 16.4241 0.377864C15.8172 0.126569 15.1664 -0.00185599 14.5095 2.02654e-05H8.1665C6.84091 0.00160812 5.57006 0.528902 4.63272 1.46624C3.69539 2.40358 3.16809 3.67443 3.1665 5.00002V19C3.16809 20.3256 3.69539 21.5965 4.63272 22.5338C5.57006 23.4711 6.84091 23.9984 8.1665 24H16.1665C17.4921 23.9984 18.7629 23.4711 19.7003 22.5338C20.6376 21.5965 21.1649 20.3256 21.1665 19V6.65702C21.1681 6.0002 21.0395 5.34959 20.788 4.74281C20.5365 4.13604 20.1673 3.58515 19.7015 3.12202ZM18.2875 4.53602C18.4293 4.67734 18.5563 4.83282 18.6665 5.00002H16.1665V2.50002C16.3334 2.61134 16.4892 2.7386 16.6315 2.88002L18.2875 4.53602ZM19.1665 19C19.1665 19.7957 18.8504 20.5587 18.2878 21.1213C17.7252 21.684 16.9622 22 16.1665 22H8.1665C7.37085 22 6.60779 21.684 6.04518 21.1213C5.48257 20.5587 5.1665 19.7957 5.1665 19V5.00002C5.1665 4.20437 5.48257 3.44131 6.04518 2.8787C6.60779 2.31609 7.37085 2.00002 8.1665 2.00002H14.1665V5.00002C14.1665 5.53045 14.3772 6.03916 14.7523 6.41423C15.1274 6.78931 15.6361 7.00002 16.1665 7.00002H19.1665V19ZM16.1665 9.00002C16.4317 9.00002 16.6861 9.10538 16.8736 9.29291C17.0611 9.48045 17.1665 9.73481 17.1665 10C17.1665 10.2652 17.0611 10.5196 16.8736 10.7071C16.6861 10.8947 16.4317 11 16.1665 11H8.1665C7.90129 11 7.64693 10.8947 7.4594 10.7071C7.27186 10.5196 7.1665 10.2652 7.1665 10C7.1665 9.73481 7.27186 9.48045 7.4594 9.29291C7.64693 9.10538 7.90129 9.00002 8.1665 9.00002H16.1665ZM17.1665 14C17.1665 14.2652 17.0611 14.5196 16.8736 14.7071C16.6861 14.8947 16.4317 15 16.1665 15H8.1665C7.90129 15 7.64693 14.8947 7.4594 14.7071C7.27186 14.5196 7.1665 14.2652 7.1665 14C7.1665 13.7348 7.27186 13.4805 7.4594 13.2929C7.64693 13.1054 7.90129 13 8.1665 13H16.1665C16.4317 13 16.6861 13.1054 16.8736 13.2929C17.0611 13.4805 17.1665 13.7348 17.1665 14ZM16.9745 17.413C17.13 17.6269 17.1944 17.8936 17.1537 18.1548C17.1131 18.416 16.9706 18.6505 16.7575 18.807C15.7443 19.529 14.5443 19.9432 13.3015 20C12.5754 19.9965 11.8713 19.7501 11.3015 19.3C10.9735 19.075 10.8485 19 10.6015 19C9.93293 19.1035 9.30212 19.3769 8.7695 19.794C8.55825 19.9446 8.29674 20.0072 8.0402 19.9686C7.78365 19.93 7.55215 19.7932 7.39459 19.5871C7.23702 19.381 7.16573 19.1217 7.19575 18.864C7.22578 18.6063 7.35477 18.3704 7.5555 18.206C8.43668 17.522 9.49478 17.1036 10.6055 17C11.2716 17.0107 11.9156 17.2409 12.4375 17.655C12.6754 17.869 12.9817 17.9913 13.3015 18C14.1192 17.9388 14.9055 17.6594 15.5785 17.191C15.7931 17.0355 16.0607 16.9715 16.3225 17.0131C16.5842 17.0547 16.8187 17.1986 16.9745 17.413Z" fill="#E2DCFE"/>
</g>
<defs>
<clipPath id="clip0_153_11511">
<rect width="24" height="24" fill="white" transform="translate(0.166504)"/>
</clipPath>
</defs>
</svg>
