<svg width="24" height="25" viewBox="0 0 24 25" fill="none" xmlns="http://www.w3.org/2000/svg">
<g clip-path="url(#clip0_426_3084)">
<path d="M22.5545 13.7457L20.6545 6.90968C20.0976 4.90701 18.8872 3.14796 17.2158 1.91214C15.5444 0.676328 13.5079 0.0346612 11.43 0.0891413C9.35201 0.143621 7.3519 0.891122 5.74756 2.21282C4.14321 3.53452 3.0267 5.35458 2.57549 7.38368L1.10449 13.9987C0.942009 14.7296 0.945766 15.4877 1.11549 16.217C1.28521 16.9463 1.61656 17.6281 2.08508 18.2122C2.55359 18.7963 3.14731 19.2677 3.8224 19.5916C4.4975 19.9155 5.23672 20.0837 5.98549 20.0837H7.09949C7.32901 21.214 7.94222 22.2302 8.83524 22.9601C9.72825 23.69 10.8461 24.0887 11.9995 24.0887C13.1528 24.0887 14.2707 23.69 15.1638 22.9601C16.0568 22.2302 16.67 21.214 16.8995 20.0837H17.7375C18.5083 20.0837 19.2687 19.9056 19.9592 19.5631C20.6498 19.2207 21.2518 18.7232 21.7183 18.1095C22.1848 17.4959 22.5031 16.7827 22.6483 16.0257C22.7935 15.2687 22.7618 14.4884 22.5555 13.7457H22.5545ZM11.9995 22.0837C11.3812 22.0811 10.7789 21.8876 10.2748 21.5296C9.77073 21.1716 9.38958 20.6666 9.18349 20.0837H14.8155C14.6094 20.6666 14.2283 21.1716 13.7242 21.5296C13.2201 21.8876 12.6178 22.0811 11.9995 22.0837ZM20.1255 16.8987C19.8468 17.2683 19.4858 17.5679 19.0711 17.7736C18.6564 17.9793 18.1994 18.0855 17.7365 18.0837H5.98549C5.53628 18.0836 5.09281 17.9826 4.68783 17.7883C4.28286 17.5939 3.9267 17.311 3.64566 16.9606C3.36461 16.6101 3.16585 16.201 3.06406 15.7635C2.96226 15.326 2.96001 14.8712 3.05749 14.4327L4.52749 7.81667C4.88185 6.22288 5.7588 4.79328 7.01895 3.75512C8.2791 2.71697 9.85012 2.12985 11.4823 2.08709C13.1144 2.04433 14.714 2.54839 16.0268 3.51914C17.3396 4.4899 18.2902 5.87162 18.7275 7.44467L20.6275 14.2807C20.753 14.726 20.773 15.1946 20.6859 15.649C20.5988 16.1035 20.4069 16.5313 20.1255 16.8987Z" fill="#374957"/>
</g>
<defs>
<clipPath id="clip0_426_3084">
<rect width="24" height="24" fill="white" transform="translate(0 0.0839844)"/>
</clipPath>
</defs>
</svg>
