<svg width="20" height="20" viewBox="0 0 20 20" fill="none" xmlns="http://www.w3.org/2000/svg">
<g opacity="0.7" clip-path="url(#clip0_254_9644)">
<path d="M19.766 18.5835L14.799 13.6165C17.7127 10.0529 17.1859 4.80207 13.6223 1.8884C10.0588 -1.02527 4.80797 -0.498556 1.89426 3.065C-1.01945 6.62855 -0.492657 11.8794 3.0709 14.7931C6.14035 17.3029 10.5529 17.3029 13.6224 14.7931L18.5894 19.7601C18.92 20.0794 19.4468 20.0702 19.766 19.7396C20.0774 19.4172 20.0774 18.9059 19.766 18.5835ZM1.70285 8.35406C1.70285 4.67746 4.68332 1.69699 8.35992 1.69699C12.0365 1.69699 15.017 4.67746 15.017 8.35406C15.017 12.0307 12.0365 15.0111 8.35992 15.0111C4.68504 15.007 1.70699 12.0289 1.70285 8.35406ZM10.0242 5.02551C9.40258 5.02832 8.80613 5.27164 8.35996 5.70453C7.91379 5.27168 7.31734 5.02832 6.6957 5.02551C5.27254 5.0748 4.15676 6.26496 4.1993 7.68832C4.1993 9.35258 5.8977 11.0693 7.32312 12.2151C7.92988 12.6984 8.79004 12.6984 9.3968 12.2151C10.8222 11.0693 12.5206 9.35258 12.5206 7.68832C12.5631 6.26496 11.4474 5.0748 10.0242 5.02551ZM8.36492 10.917C6.82215 9.67715 5.86352 8.43726 5.86352 7.68836C5.82199 7.18422 6.19227 6.73984 6.69566 6.6898C7.19902 6.73984 7.56934 7.18422 7.52781 7.68836C7.52781 8.14793 7.90035 8.52051 8.35996 8.52051C8.81953 8.52051 9.19211 8.14797 9.19211 7.68836C9.15059 7.18422 9.52086 6.73984 10.0243 6.6898C10.5276 6.73984 10.8979 7.18422 10.8564 7.68836C10.8563 8.43726 9.89773 9.67715 8.36492 10.917Z" fill="#1B1F24"/>
</g>
<defs>
<clipPath id="clip0_254_9644">
<rect width="20" height="20" fill="white"/>
</clipPath>
</defs>
</svg>
