<svg width="25" height="24" viewBox="0 0 25 24" fill="none" xmlns="http://www.w3.org/2000/svg">
<g clip-path="url(#clip0_153_11492)">
<path d="M19.8335 4H18.7335C18.5014 2.87141 17.8873 1.85735 16.9947 1.12872C16.1022 0.40009 14.9857 0.00145452 13.8335 0L11.8335 0C10.6813 0.00145452 9.56481 0.40009 8.67225 1.12872C7.77968 1.85735 7.16559 2.87141 6.9335 4H5.8335C4.5079 4.00159 3.23705 4.52888 2.29972 5.46622C1.36238 6.40356 0.835084 7.67441 0.833496 9L0.833496 19C0.835084 20.3256 1.36238 21.5964 2.29972 22.5338C3.23705 23.4711 4.5079 23.9984 5.8335 24H19.8335C21.1591 23.9984 22.4299 23.4711 23.3673 22.5338C24.3046 21.5964 24.8319 20.3256 24.8335 19V9C24.8319 7.67441 24.3046 6.40356 23.3673 5.46622C22.4299 4.52888 21.1591 4.00159 19.8335 4ZM11.8335 2H13.8335C14.4518 2.00256 15.0541 2.19608 15.5582 2.55409C16.0623 2.91209 16.4434 3.41709 16.6495 4H9.0175C9.22358 3.41709 9.60473 2.91209 10.1088 2.55409C10.6129 2.19608 11.2152 2.00256 11.8335 2ZM5.8335 6H19.8335C20.6291 6 21.3922 6.31607 21.9548 6.87868C22.5174 7.44129 22.8335 8.20435 22.8335 9V12H2.8335V9C2.8335 8.20435 3.14957 7.44129 3.71218 6.87868C4.27479 6.31607 5.03785 6 5.8335 6ZM19.8335 22H5.8335C5.03785 22 4.27479 21.6839 3.71218 21.1213C3.14957 20.5587 2.8335 19.7956 2.8335 19V14H11.8335V15C11.8335 15.2652 11.9389 15.5196 12.1264 15.7071C12.3139 15.8946 12.5683 16 12.8335 16C13.0987 16 13.3531 15.8946 13.5406 15.7071C13.7281 15.5196 13.8335 15.2652 13.8335 15V14H22.8335V19C22.8335 19.7956 22.5174 20.5587 21.9548 21.1213C21.3922 21.6839 20.6291 22 19.8335 22Z" fill="#1B1F24"/>
</g>
<defs>
<clipPath id="clip0_153_11492">
<rect width="24" height="24" fill="white" transform="translate(0.833496)"/>
</clipPath>
</defs>
</svg>
