<svg width="25" height="24" viewBox="0 0 25 24" fill="none" xmlns="http://www.w3.org/2000/svg">
<g clip-path="url(#clip0_153_11533)">
<path d="M19.5 4H18.4C18.1679 2.87141 17.5538 1.85735 16.6613 1.12872C15.7687 0.40009 14.6522 0.00145452 13.5 0L11.5 0C10.3478 0.00145452 9.23132 0.40009 8.33875 1.12872C7.44618 1.85735 6.8321 2.87141 6.6 4H5.5C4.17441 4.00159 2.90356 4.52888 1.96622 5.46622C1.02888 6.40356 0.501588 7.67441 0.5 9L0.5 19C0.501588 20.3256 1.02888 21.5964 1.96622 22.5338C2.90356 23.4711 4.17441 23.9984 5.5 24H19.5C20.8256 23.9984 22.0964 23.4711 23.0338 22.5338C23.9711 21.5964 24.4984 20.3256 24.5 19V9C24.4984 7.67441 23.9711 6.40356 23.0338 5.46622C22.0964 4.52888 20.8256 4.00159 19.5 4ZM11.5 2H13.5C14.1183 2.00256 14.7206 2.19608 15.2247 2.55409C15.7288 2.91209 16.1099 3.41709 16.316 4H8.684C8.89008 3.41709 9.27123 2.91209 9.7753 2.55409C10.2794 2.19608 10.8817 2.00256 11.5 2ZM5.5 6H19.5C20.2956 6 21.0587 6.31607 21.6213 6.87868C22.1839 7.44129 22.5 8.20435 22.5 9V12H2.5V9C2.5 8.20435 2.81607 7.44129 3.37868 6.87868C3.94129 6.31607 4.70435 6 5.5 6ZM19.5 22H5.5C4.70435 22 3.94129 21.6839 3.37868 21.1213C2.81607 20.5587 2.5 19.7956 2.5 19V14H11.5V15C11.5 15.2652 11.6054 15.5196 11.7929 15.7071C11.9804 15.8946 12.2348 16 12.5 16C12.7652 16 13.0196 15.8946 13.2071 15.7071C13.3946 15.5196 13.5 15.2652 13.5 15V14H22.5V19C22.5 19.7956 22.1839 20.5587 21.6213 21.1213C21.0587 21.6839 20.2956 22 19.5 22Z" fill="#E2DCFE"/>
</g>
<defs>
<clipPath id="clip0_153_11533">
<rect width="24" height="24" fill="white" transform="translate(0.5)"/>
</clipPath>
</defs>
</svg>
